<?xml version="1.0" encoding="utf-8"?>
<!-- Generator: Adobe Illustrator 25.2.0, SVG Export Plug-In . SVG Version: 6.00 Build 0)  -->
<svg version="1.1" id="Calque_1" xmlns="http://www.w3.org/2000/svg" xmlns:xlink="http://www.w3.org/1999/xlink" x="0px" y="0px"
	 viewBox="0 0 184.04 211.63" style="enable-background:new 0 0 184.04 211.63;" xml:space="preserve">
<g>
	<path d="M182.62,51.87L93.44,0.38c-0.87-0.51-1.96-0.51-2.83,0L1.42,51.87C0.54,52.38,0,53.31,0,54.32V157.3
		c0,1.02,0.54,1.95,1.42,2.46l89.19,51.49c0.44,0.25,0.93,0.38,1.42,0.38s0.97-0.13,1.41-0.38l89.18-51.49
		c0.88-0.51,1.42-1.44,1.42-2.46V54.32C184.04,53.31,183.5,52.38,182.62,51.87z M89.19,203.88L5.67,155.67V59.23l83.52,48.22V203.88
		z M92.03,102.54h-0.01L8.51,54.32L92.03,6.11l83.51,48.21L92.03,102.54z M178.37,155.67l-83.51,48.21v-96.43l83.51-48.22V155.67z"
		/>
</g>
<g>
	<ellipse cx="92.03" cy="54.33" rx="14.36" ry="9.16"/>
</g>
<g>
	<ellipse transform="matrix(0.866 -0.5 0.5 0.866 -59.4262 41.3414)" cx="47.43" cy="131.56" rx="9.16" ry="14.36"/>
</g>
<g>
	<ellipse transform="matrix(0.5 -0.866 0.866 0.5 -45.6209 150.857)" cx="107.84" cy="114.94" rx="14.36" ry="9.16"/>
</g>
<g>
	<ellipse transform="matrix(0.5 -0.866 0.866 0.5 -45.6272 217.3036)" cx="165.38" cy="148.17" rx="14.36" ry="9.16"/>
</g>
<g>
	<ellipse transform="matrix(0.5 -0.866 0.866 0.5 -45.6276 184.0936)" cx="136.62" cy="131.56" rx="14.36" ry="9.16"/>
</g>
<g>
	<ellipse transform="matrix(0.866 -0.5 0.5 0.866 -38.3593 20.2731)" cx="18.65" cy="81.72" rx="9.16" ry="14.36"/>
</g>
<g>
	<ellipse transform="matrix(0.866 -0.5 0.5 0.866 -47.2652 53.5063)" cx="76.21" cy="114.95" rx="9.16" ry="14.36"/>
</g>
<g>
	<ellipse transform="matrix(0.866 -0.5 0.5 0.866 -80.4931 62.4096)" cx="76.21" cy="181.41" rx="9.16" ry="14.36"/>
</g>
<g>
	<ellipse transform="matrix(0.866 -0.5 0.5 0.866 -71.5983 29.1795)" cx="18.65" cy="148.19" rx="9.16" ry="14.36"/>
</g>
</svg>
