<?xml version="1.0" encoding="utf-8"?>
<!-- Generator: Adobe Illustrator 25.2.0, SVG Export Plug-In . SVG Version: 6.00 Build 0)  -->
<svg version="1.1" id="Calque_1" xmlns="http://www.w3.org/2000/svg" xmlns:xlink="http://www.w3.org/1999/xlink" x="0px" y="0px"
	 viewBox="0 0 184.04 211.63" style="enable-background:new 0 0 184.04 211.63;" xml:space="preserve">
<g>
	<g>
		<path d="M182.63,51.87L93.44,0.38c-0.87-0.51-1.95-0.51-2.83,0L1.42,51.88C0.54,52.38,0,53.32,0,54.33l0.01,102.98
			c0,1.01,0.54,1.95,1.41,2.45l89.19,51.49c0.44,0.26,0.93,0.38,1.41,0.38c0.49,0,0.98-0.12,1.42-0.38l89.18-51.48
			c0.88-0.51,1.42-1.45,1.42-2.46V54.33C184.04,53.31,183.5,52.38,182.63,51.87z M89.19,203.89L5.68,155.67L5.67,59.24l83.52,48.22
			V203.89z M92.02,102.55L8.51,54.33L92.03,6.11l83.51,48.22L92.02,102.55z M178.37,155.68l-83.51,48.21v-96.43l83.51-48.22V155.68z
			"/>
	</g>
	<g>
		<ellipse transform="matrix(0.5 -0.866 0.866 0.5 11.9277 184.0987)" cx="165.4" cy="81.72" rx="14.36" ry="9.16"/>
	</g>
	<g>
		<ellipse transform="matrix(0.5 -0.866 0.866 0.5 -16.8503 200.7041)" cx="165.39" cy="114.94" rx="14.36" ry="9.16"/>
	</g>
	<g>
		<ellipse transform="matrix(0.5 -0.866 0.866 0.5 -103.1876 184.0928)" cx="107.84" cy="181.41" rx="14.36" ry="9.16"/>
	</g>
	<g>
		<ellipse transform="matrix(0.5 -0.866 0.866 0.5 -74.4079 167.4807)" cx="107.84" cy="148.18" rx="14.36" ry="9.16"/>
	</g>
	<g>
		<ellipse transform="matrix(0.5 -0.866 0.866 0.5 -45.6283 150.8636)" cx="107.84" cy="114.95" rx="14.36" ry="9.16"/>
	</g>
	<g>
		<ellipse transform="matrix(0.5 -0.866 0.866 0.5 -45.6283 217.328)" cx="165.4" cy="148.18" rx="14.36" ry="9.16"/>
	</g>
	<g>
		<ellipse transform="matrix(0.866 -0.5 0.5 0.866 -47.273 53.5362)" cx="76.26" cy="114.98" rx="9.16" ry="14.36"/>
	</g>
	<g>
		<ellipse transform="matrix(0.866 -0.5 0.5 0.866 -71.5973 29.1941)" cx="18.68" cy="148.2" rx="9.16" ry="14.36"/>
	</g>
	<g>
		<ellipse transform="matrix(0.866 -0.5 0.5 0.866 -38.3608 20.2757)" cx="18.65" cy="81.72" rx="9.16" ry="14.36"/>
	</g>
	<g>
		<ellipse transform="matrix(0.866 -0.5 0.5 0.866 -80.4974 62.4094)" cx="76.21" cy="181.41" rx="9.16" ry="14.36"/>
	</g>
	<g>
		<ellipse cx="149.58" cy="54.33" rx="14.36" ry="9.16"/>
	</g>
	<g>
		<ellipse cx="34.47" cy="54.33" rx="14.36" ry="9.16"/>
	</g>
</g>
</svg>
