<?xml version="1.0" encoding="utf-8"?>
<!-- Generator: Adobe Illustrator 25.2.0, SVG Export Plug-In . SVG Version: 6.00 Build 0)  -->
<svg version="1.1" id="Calque_1" xmlns="http://www.w3.org/2000/svg" xmlns:xlink="http://www.w3.org/1999/xlink" x="0px" y="0px"
	 viewBox="0 0 184.04 211.63" style="enable-background:new 0 0 184.04 211.63;" xml:space="preserve">
<g>
	<g>
		<path d="M182.62,51.86L93.44,0.37c-0.88-0.5-1.96-0.5-2.84,0L1.42,51.86C0.54,52.37,0,53.31,0,54.32V157.3
			c0,1.01,0.54,1.94,1.42,2.45l89.18,51.5c0.44,0.25,0.93,0.38,1.42,0.38c0.49,0,0.98-0.13,1.42-0.38l89.18-51.49
			c0.88-0.51,1.42-1.45,1.42-2.46V54.32C184.04,53.3,183.5,52.37,182.62,51.86z M5.67,155.66V59.23l83.51,48.21l0.01,96.44
			L5.67,155.66z M92.02,102.53L8.51,54.32L92.02,6.1l83.5,48.22L92.02,102.53z M178.37,155.67l-83.51,48.21l-0.01-96.44l83.52-48.22
			V155.67z"/>
	</g>
	<g>
		<ellipse transform="matrix(0.866 -0.5 0.5 0.866 -59.4234 41.3377)" cx="47.43" cy="131.55" rx="9.16" ry="14.36"/>
	</g>
	<g>
		<ellipse transform="matrix(0.5 -0.866 0.866 0.5 -45.6267 184.0869)" cx="136.61" cy="131.56" rx="14.36" ry="9.16"/>
	</g>
	<g>
		<ellipse cx="92.01" cy="87.56" rx="14.36" ry="9.16"/>
	</g>
	<g>
		<ellipse cx="92.02" cy="21.11" rx="14.36" ry="9.16"/>
	</g>
	<g>
		<ellipse cx="92.02" cy="54.32" rx="14.36" ry="9.16"/>
	</g>
	<g>
		<ellipse transform="matrix(0.5 -0.866 0.866 0.5 -103.1844 184.0887)" cx="107.83" cy="181.4" rx="14.36" ry="9.16"/>
	</g>
	<g>
		<ellipse transform="matrix(0.5 -0.866 0.866 0.5 -45.6213 150.8571)" cx="107.84" cy="114.94" rx="14.36" ry="9.16"/>
	</g>
	<g>
		<ellipse transform="matrix(0.5 -0.866 0.866 0.5 11.931 184.085)" cx="165.39" cy="81.71" rx="14.36" ry="9.16"/>
	</g>
	<g>
		<ellipse transform="matrix(0.5 -0.866 0.866 0.5 -45.6128 217.3277)" cx="165.4" cy="148.17" rx="14.36" ry="9.16"/>
	</g>
</g>
</svg>
