<?xml version="1.0" encoding="utf-8"?>
<!-- Generator: Adobe Illustrator 25.2.0, SVG Export Plug-In . SVG Version: 6.00 Build 0)  -->
<svg version="1.1" id="Calque_1" xmlns="http://www.w3.org/2000/svg" xmlns:xlink="http://www.w3.org/1999/xlink" x="0px" y="0px"
	 viewBox="0 0 184.04 211.63" style="enable-background:new 0 0 184.04 211.63;" xml:space="preserve">
<g>
	<g>
		<path d="M182.62,51.86L93.44,0.37c-0.88-0.5-1.96-0.5-2.83,0L1.42,51.86C0.55,52.37,0,53.31,0,54.32V157.3
			c0,1.01,0.54,1.94,1.42,2.45l89.19,51.5c0.44,0.25,0.93,0.38,1.41,0.38c0.49,0,0.98-0.13,1.42-0.38l89.18-51.49
			c0.88-0.51,1.42-1.45,1.42-2.46V54.32C184.04,53.3,183.5,52.37,182.62,51.86z M89.19,203.88L5.67,155.66V59.23l83.52,48.21V203.88
			z M92.02,102.53L8.52,54.32L92.02,6.1l83.51,48.22L92.02,102.53z M178.37,155.67l-83.51,48.21v-96.44l83.51-48.21V155.67z"/>
	</g>
	<g>
		<ellipse transform="matrix(0.866 -0.5 0.5 0.866 -80.4933 62.4081)" cx="76.21" cy="181.41" rx="9.16" ry="14.36"/>
	</g>
	<g>
		<ellipse transform="matrix(0.866 -0.5 0.5 0.866 -76.0378 45.7966)" cx="47.44" cy="164.79" rx="9.16" ry="14.36"/>
	</g>
	<g>
		<ellipse transform="matrix(0.866 -0.5 0.5 0.866 -38.356 20.2751)" cx="18.66" cy="81.71" rx="9.16" ry="14.36"/>
	</g>
	<g>
		<ellipse transform="matrix(0.866 -0.5 0.5 0.866 -42.8096 36.8897)" cx="47.43" cy="98.33" rx="9.16" ry="14.36"/>
	</g>
	<g>
		<ellipse transform="matrix(0.866 -0.5 0.5 0.866 -47.2615 53.506)" cx="76.21" cy="114.94" rx="9.16" ry="14.36"/>
	</g>
	<g>
		<ellipse transform="matrix(0.866 -0.5 0.5 0.866 -71.5891 29.1784)" cx="18.65" cy="148.18" rx="9.16" ry="14.36"/>
	</g>
	<g>
		<ellipse cx="91.97" cy="87.58" rx="14.36" ry="9.16"/>
	</g>
	<g>
		<ellipse cx="92" cy="21.1" rx="14.36" ry="9.16"/>
	</g>
	<g>
		<ellipse cx="149.58" cy="54.32" rx="14.36" ry="9.16"/>
	</g>
	<g>
		<ellipse cx="34.46" cy="54.32" rx="14.36" ry="9.16"/>
	</g>
	<g>
		<ellipse transform="matrix(0.5 -0.866 0.866 0.5 -103.1824 184.0922)" cx="107.84" cy="181.4" rx="14.36" ry="9.16"/>
	</g>
	<g>
		<ellipse transform="matrix(0.5 -0.866 0.866 0.5 11.933 184.0885)" cx="165.39" cy="81.71" rx="14.36" ry="9.16"/>
	</g>
</g>
</svg>
