<?xml version="1.0" encoding="utf-8"?>
<!-- Generator: Adobe Illustrator 25.2.0, SVG Export Plug-In . SVG Version: 6.00 Build 0)  -->
<svg version="1.1" id="Calque_1" xmlns="http://www.w3.org/2000/svg" xmlns:xlink="http://www.w3.org/1999/xlink" x="0px" y="0px"
	 viewBox="0 0 184.04 211.63" style="enable-background:new 0 0 184.04 211.63;" xml:space="preserve">
<g>
	<g>
		<path d="M182.62,51.87L93.44,0.38c-0.88-0.51-1.96-0.51-2.84,0L1.42,51.88C0.54,52.38,0,53.32,0,54.33v102.98
			c0,1.01,0.54,1.95,1.42,2.45l89.18,51.49c0.44,0.26,0.93,0.38,1.42,0.38c0.49,0,0.98-0.12,1.42-0.38l89.18-51.48
			c0.88-0.51,1.42-1.45,1.42-2.46V54.33C184.04,53.31,183.5,52.38,182.62,51.87z M92.02,6.11l83.51,48.22l-83.51,48.22L8.5,54.33
			L92.02,6.11z M5.67,59.24l83.51,48.22l0.01,96.43L5.67,155.67V59.24z M178.37,155.68l-83.52,48.21v-96.43l83.52-48.22V155.68z"/>
	</g>
	<g>
		<ellipse transform="matrix(0.5 -0.866 0.866 0.5 -45.637 184.0923)" cx="136.61" cy="131.57" rx="14.36" ry="9.16"/>
	</g>
	<g>
		<ellipse cx="92.02" cy="54.33" rx="14.36" ry="9.16"/>
	</g>
	<g>
		<ellipse transform="matrix(0.866 -0.5 0.5 0.866 -47.2666 53.5084)" cx="76.21" cy="114.95" rx="9.16" ry="14.36"/>
	</g>
	<g>
		<ellipse transform="matrix(0.866 -0.5 0.5 0.866 -71.5855 29.1849)" cx="18.67" cy="148.17" rx="9.16" ry="14.36"/>
	</g>
	<g>
		<ellipse transform="matrix(0.866 -0.5 0.5 0.866 -59.4296 41.3405)" cx="47.43" cy="131.57" rx="9.16" ry="14.36"/>
	</g>
	<g>
		<ellipse cx="149.58" cy="54.33" rx="14.36" ry="9.16"/>
	</g>
	<g>
		<ellipse cx="92.01" cy="87.56" rx="14.36" ry="9.16"/>
	</g>
	<g>
		<ellipse cx="34.46" cy="54.33" rx="14.36" ry="9.16"/>
	</g>
	<g>
		<ellipse cx="92.01" cy="21.09" rx="14.36" ry="9.16"/>
	</g>
</g>
</svg>
