<?xml version="1.0" encoding="utf-8"?>
<!-- Generator: Adobe Illustrator 25.2.0, SVG Export Plug-In . SVG Version: 6.00 Build 0)  -->
<svg version="1.1" id="Calque_1" xmlns="http://www.w3.org/2000/svg" xmlns:xlink="http://www.w3.org/1999/xlink" x="0px" y="0px"
	 viewBox="0 0 184.04 211.63" style="enable-background:new 0 0 184.04 211.63;" xml:space="preserve">
<g>
	<g>
		<path d="M94.87,107.45l83.5-48.21v-0.01L94.87,107.45z"/>
		<path d="M182.63,51.87L93.45,0.38c-0.88-0.51-1.96-0.51-2.84,0L1.42,51.87C0.55,52.38,0,53.31,0,54.32V157.3
			c0,1.02,0.55,1.95,1.42,2.46l89.19,51.49c0.44,0.25,0.93,0.38,1.42,0.38s0.98-0.13,1.42-0.38l89.18-51.49
			c0.87-0.51,1.41-1.44,1.41-2.46V54.32C184.04,53.31,183.5,52.38,182.63,51.87z M89.2,203.88L5.67,155.67V59.23l83.53,48.22V203.88
			z M92.03,102.54L8.51,54.32L92.03,6.11l83.51,48.21L92.03,102.54z M178.37,155.67l-83.5,48.21v-96.43l83.5-48.22V155.67z"/>
	</g>
	<g>
		<ellipse cx="34.47" cy="54.32" rx="14.36" ry="9.16"/>
	</g>
	<g>
		<ellipse cx="63.25" cy="37.72" rx="14.36" ry="9.16"/>
	</g>
	<g>
		<ellipse cx="149.58" cy="54.33" rx="14.36" ry="9.16"/>
	</g>
	<g>
		<ellipse cx="120.8" cy="70.94" rx="14.36" ry="9.16"/>
	</g>
	<g>
		<ellipse cx="92.02" cy="87.56" rx="14.36" ry="9.16"/>
	</g>
	<g>
		<ellipse cx="92.02" cy="21.09" rx="14.36" ry="9.16"/>
	</g>
	<g>
		<ellipse transform="matrix(0.5 -0.866 0.866 0.5 -45.5744 150.8347)" cx="107.84" cy="114.89" rx="14.36" ry="9.16"/>
	</g>
	<g>
		<ellipse transform="matrix(0.5 -0.866 0.866 0.5 -45.5986 217.3143)" cx="165.4" cy="148.15" rx="14.36" ry="9.16"/>
	</g>
	<g>
		<ellipse transform="matrix(0.5 -0.866 0.866 0.5 -103.1832 184.0952)" cx="107.84" cy="181.41" rx="14.36" ry="9.16"/>
	</g>
	<g>
		<ellipse transform="matrix(0.5 -0.866 0.866 0.5 11.9321 184.099)" cx="165.4" cy="81.72" rx="14.36" ry="9.16"/>
	</g>
	<g>
		<ellipse transform="matrix(0.866 -0.5 0.5 0.866 -38.3588 20.2751)" cx="18.65" cy="81.72" rx="9.16" ry="14.36"/>
	</g>
	<g>
		<ellipse transform="matrix(0.866 -0.5 0.5 0.866 -80.4925 62.4116)" cx="76.22" cy="181.41" rx="9.16" ry="14.36"/>
	</g>
</g>
</svg>
